<?xml version="1.0" encoding="UTF-8"?>
<svg id="Calque_2" data-name="Calque 2" xmlns="http://www.w3.org/2000/svg" viewBox="0 0 139.03 189.48">
  <defs>
    <style>
      .cls-1 {
        fill: #545454;
      }

      .cls-1, .cls-2, .cls-3, .cls-4, .cls-5, .cls-6 {
        fill-rule: evenodd;
      }

      .cls-1, .cls-2, .cls-3, .cls-4, .cls-5, .cls-6, .cls-7 {
        stroke-width: 0px;
      }

      .cls-2 {
        fill: #444;
      }

      .cls-3 {
        fill: #161616;
      }

      .cls-4 {
        fill: #6b6b6b;
      }

      .cls-5 {
        fill: #232323;
      }

      .cls-6 {
        fill: #333;
      }

      .cls-7 {
        fill: #fff;
      }
    </style>
  </defs>
  <g id="OBJECTS">
    <g>
      <g>
        <path class="cls-3" d="m117.17,65.35c18.62,29.13,16.59,39.16-14.56,71.72-9.93.69-18.82,10.68-29.65,3.32-2.9-16.63,8.92-27.4,18.3-42.1-22.46-4.97-44.87-7.33-59.69-25.55-8.58-6.87-13.47-14.16-8.35-26.2,3.89-9.15,5.43-19.42,7.37-29.35l-.06.11c14.08-12.61,28.66-15.52,44.4-2.72,4.34,3.53,9.71,4.89,15.35,5.66,28.45,3.91,32.19,9.41,26.46,38.42-.48,2.4-.77,4.53.43,6.69Z"/>
        <path class="cls-6" d="m30.58,17.18c.19,10.88,2.66,22.26-3.72,32.12-7.67,11.87,7.6,13.23,8.85,20.85,8.12,12.75,17.22,24.32,30.7,32.23,8.77,5.14,13.64,13.19,9.32,24.09-7.94,6.49-15.72,2.35-21.11-2.66-14.49-13.5-32.69-21.53-47.71-34.09-1.55-1.69-3-3.47-4.36-5.32,3.23-24.96,18-45.09,28.02-67.22Z"/>
        <path class="cls-5" d="m117.17,65.35c-5.46-3.46-2.21-7.76-1.8-12.3,1.45-15.98,1.14-30.98-22.54-26.2-5.82,1.17-13.22,2.08-17.65-3.6-13.12-16.83-28.24-15.51-44.67-5.95C39.59,7.68,88.02-3.86,97.82,1.26c22.64,11.82,28.3,30.54,19.35,64.09Z"/>
        <path class="cls-1" d="m2.56,84.4c1.5,0,3,.04,4.5.09,2.65,4.9,7.34,8.53,9.09,13.93,6.17,19.09,19.55,28.05,39.23,28.77,6.39.23,12.74,1.27,17.3,6.63.45,1.06.89,2.13,1.33,3.2,9.53,8.23,19.09-3.93,28.62.05-12.22,8.51-24.68,13.89-39.07,4.44-4.55-2.98-9.26-2.47-12.06,2.82-10.33,19.56-22.49,8.41-29.66-.7C8.55,126.79-6,108.93,2.56,84.4Z"/>
        <path class="cls-1" d="m50.44,176.28c.33-4.82,2.34-8.15,7.02-7.59,6.63.8,8.8,6.24,8.41,11.78-.3,4.2-1.86,10.54-7.98,8.69-5.49-1.66-6.53-7.95-7.45-12.87Z"/>
        <path class="cls-3" d="m130.88,125.41c5.49,1.2,8.18,4.71,8.15,9.88-.05,5.93-4.06,7.9-9.32,7.52-5.37-.38-8.82-3.19-8.03-8.94.71-5.13,3.96-8.16,9.2-8.46Z"/>
        <path class="cls-4" d="m5.61,153.75c-.55-3.77,1.49-4.87,3.77-4.32,1.83.44,4.2,1.94,4.77,3.53.84,2.39-1.01,4.5-3.68,3.88-1.9-.44-3.5-2.18-4.85-3.09Z"/>
        <path class="cls-5" d="m73.94,127.51c.91-9.71-2.4-18.84-11.41-21.52-18.57-5.53-22.35-20.59-26.82-35.84,14.16,12.33,29.78,20.65,49.38,19.25,6.44-.46,13.46.23,15.38,7.98,1.73,7.03-4.58,9.35-9.31,12.02-10.81,6.11-9.2,19.82-17.17,27.62l-.12.1c-2.56-3.22-2.93-6.42.06-9.61Z"/>
        <path class="cls-2" d="m73.94,127.51c-.02,3.21-.04,6.41-.06,9.61-4.44-1.57-8.77-4-13.34-4.57q-42.19-5.3-53.49-48.05c22.3,14.33,44.59,28.68,66.89,43.02Z"/>
      </g>
      <path class="cls-7" d="m85.42,147.4v-47.65h15.99l2.39-18.57h-18.39v-11.86c0-5.38,1.49-9.04,9.2-9.04h9.83v-16.61c-1.7-.22-7.54-.73-14.33-.73-14.18,0-23.88,8.65-23.88,24.55v13.7h-16.03v18.57h16.03v47.65h19.18Z"/>
    </g>
  </g>
</svg>