<?xml version="1.0" encoding="UTF-8"?>
<svg id="Calque_2" data-name="Calque 2" xmlns="http://www.w3.org/2000/svg" viewBox="0 0 167.27 152.91">
  <defs>
    <style>
      .cls-1 {
        fill: #545454;
      }

      .cls-1, .cls-2, .cls-3, .cls-4, .cls-5, .cls-6 {
        fill-rule: evenodd;
      }

      .cls-1, .cls-2, .cls-3, .cls-4, .cls-5, .cls-6, .cls-7 {
        stroke-width: 0px;
      }

      .cls-2 {
        fill: #444;
      }

      .cls-3 {
        fill: #161616;
      }

      .cls-4 {
        fill: #6b6b6b;
      }

      .cls-5 {
        fill: #232323;
      }

      .cls-6 {
        fill: #333;
      }

      .cls-7 {
        fill: #fff;
      }
    </style>
  </defs>
  <g id="OBJECTS">
    <g>
      <g>
        <g>
          <path class="cls-5" d="m14.04,39.03C5.11,22.23,7.5,13.82,27.96,5.66c20.46-8.15,110.28-6.92,103.68,0s1.36,4.8-.99,6.77c-6.95,4.42-14.8,4.13-22.56,4.3-17.96.22-35.94-.01-53.93.12-13.63.1-24.39,4.59-30.62,17.42-2.43,3.06-5.23,5.41-9.5,4.76Z"/>
          <path class="cls-3" d="m127.39,11.47c-.02-1.57-.02-3.13,0-4.7h4.71c3.75,6.68,11.48,3.16,16.45,6.35,6.21,3.99,4.58,6.78-1.95,8.04-4.35,3.72-1.43,10-4.94,14.01-.01,3.07-.02,6.14-.03,9.22-12.89.29-15.44-11.12-21.3-18.81-1.93-6.84,1.79-10.87,7.05-14.11Z"/>
          <path class="cls-2" d="m14.04,39.03c1.65-1.71,3.31-3.43,4.97-5.15,19.54-22.12,47.31-17.87,68.55-11.87,20.99,5.93,41.38,19.95,61.5,31.42,11.05,10.93,12.42,23.53,6.48,37.4-.23,3.84-1.4,7.14-5.15,8.96-4.66,4.93-3.77,12.04-6.9,17.59-7.08,7.48-18.73,11.29-25.36,7.44-18.31-10.64-23.57-.28-28.71,13.48-35.82,18.43-33.6,15.49-62.49-14.74C.62,96.01-.58,70.08,14.04,39.03Z"/>
          <path class="cls-6" d="m145.84,57.48c-5.82,1.12-5.31-21.89-16.89-3.64-4.47,7.05-9.25-3.99-13.32-7.76-25.53-23.63-68.76-29.1-96.62-12.2,3.37-17.21,14.27-24.09,31.27-23.63,19.25.53,38.51.39,57.76.54,6.19,4.7,9.53,13.39,18.97,13.52,9.41,3.24,11.48,13.76,18.89,18.97,1.64,1.5,3.27,3,4.9,4.51,2.89,5.56-1.68,7.29-4.96,9.68Z"/>
          <path class="cls-6" d="m89.43,138.29c6.91-12.82-9.33-7.61-11.84-15.89,16.06.06,29.15-6.23,38.63-17.95,8.49,7.86-1.1,11.38.42,17.72,9.26,1.44,16.97-2.75,24.39-8,8.81-.59,7.62,3.96,4.8,9.33-18.8,4.93-37.6,9.86-56.4,14.79Z"/>
          <path class="cls-5" d="m145.84,57.48c1.66-3.24,3.3-6.46,4.96-9.68,12.8,13.11,27.15,26.05,4.73,43.03-3.01-11.18.57-24.28-9.7-33.35Z"/>
          <path class="cls-5" d="m145.82,123.5c-.3-3.78-.93-7.38-4.8-9.33.05-6.81,2.55-12,9.38-14.39-5.09,7.22,12.88,18.89-4.58,23.72Z"/>
          <path class="cls-5" d="m141.66,36.3c-2.56-6.16-8.84-16.06,4.17-16.73,6.57-2.37,10.72,13.95,10.72,13.95,0,0-12.78,9.24-14.89,2.78Z"/>
          <path class="cls-5" d="m127,24.31c-1.44,2.45-3.82,7.16-4.18,7.02-9.02-3.75-15.4-9.73-14.79-20.54,7.87-.14,15.74-.29,23.61-.43-1.55,4.66-3.1,9.3-4.65,13.96Z"/>
        </g>
        <path class="cls-1" d="m33.04,148.58c-1.49-.46-2.99-.93-4.48-1.38-18.73-4.9-24.45-22.42-27.22-36.62-2.73-14.04-.56-30.13.21-45.3,3.13-9.7,10.11-14.23,19.98-14.86,2.32-1,4.59-1.29,6.77.37,4.26,1.27,8.16-1.35,12.34-1.16,6.47,1.94,12.15,7.63,11.85,12.65-.81,13.87,6.81,13.88,16.38,12.82,21.39,15.52,19,15.09,9.85,40.95-8.34,23.55-23.17,31.92-45.67,32.54Z"/>
        <path class="cls-4" d="m13.75,137.57c-2.79-.24-5.57-.5-8.34-.8.27-2.8.53-5.57.8-8.36,12.51-5.54,7.57-19.85,14.07-28.14,8.15-10.35,12.82-6.99,13.95,4.82,5.86,8.35,17.52,4.24,24.04,11.15,5.45.54,10.9,1.08,16.37,1.62-1.68,22.94-22.37,25.53-37.02,34.63-12.48,2.27-19-5.02-23.87-14.92Z"/>
      </g>
      <g>
        <path class="cls-7" d="m96.64,120.54h-39.52c-17.54,0-31.81-14.27-31.81-31.81v-34.83c0-17.54,14.27-31.81,31.81-31.81h39.52c17.54,0,31.81,14.27,31.81,31.81v34.83c0,17.54-14.27,31.81-31.81,31.81ZM57.12,29.16c-13.64,0-24.74,11.1-24.74,24.74v34.83c0,13.64,11.1,24.74,24.74,24.74h39.52c13.64,0,24.74-11.1,24.74-24.74v-34.83c0-13.64-11.1-24.74-24.74-24.74h-39.52Z"/>
        <path class="cls-7" d="m76.88,99.63c-15.61,0-28.32-12.7-28.32-28.32s12.7-28.32,28.32-28.32,28.32,12.7,28.32,28.32-12.7,28.32-28.32,28.32Zm0-49.57c-11.72,0-21.25,9.53-21.25,21.25s9.53,21.25,21.25,21.25,21.25-9.53,21.25-21.25-9.53-21.25-21.25-21.25Z"/>
        <path class="cls-7" d="m110.64,43.87c0,3.25-2.63,5.88-5.87,5.88s-5.88-2.63-5.88-5.88,2.63-5.88,5.88-5.88,5.87,2.63,5.87,5.88Z"/>
      </g>
    </g>
  </g>
</svg>