<?xml version="1.0" encoding="UTF-8"?>
<svg id="Calque_2" data-name="Calque 2" xmlns="http://www.w3.org/2000/svg" viewBox="0 0 124.87 15.02">
  <defs>
    <style>
      .cls-1 {
        fill: #fb0;
        stroke-width: 0px;
      }
    </style>
  </defs>
  <g id="Layer_1" data-name="Layer 1">
    <g>
      <path class="cls-1" d="m13.05,13.73c.06.42-.12.83-.46,1.08s-.79.28-1.17.09l-3.13-1.57c-.32-.16-.69-.16-1.01,0l-3.14,1.55c-.38.19-.83.15-1.17-.1-.34-.25-.51-.67-.45-1.08l.53-3.46c.05-.35-.06-.71-.31-.96L.32,6.76c-.29-.3-.39-.74-.26-1.14.13-.4.48-.69.89-.76l3.45-.57c.35-.06.65-.27.82-.59l1.63-3.1C7.04.23,7.43,0,7.85,0c.42,0,.81.24,1,.61l1.6,3.11c.16.32.46.54.81.6l3.45.59c.41.07.76.37.88.77.13.4.02.84-.27,1.14l-2.46,2.49c-.25.25-.37.61-.31.96l.5,3.46Z"/>
      <path class="cls-1" d="m40.36,13.73c.06.42-.12.83-.46,1.08s-.79.28-1.17.09l-3.12-1.57c-.32-.16-.69-.16-1.01,0l-3.14,1.55c-.38.19-.83.15-1.17-.1-.34-.25-.51-.67-.45-1.08l.53-3.46c.05-.35-.06-.71-.31-.96l-2.44-2.51c-.29-.3-.4-.74-.26-1.14.13-.4.48-.69.89-.76l3.45-.57c.35-.06.65-.27.82-.59l1.63-3.1C34.35.23,34.74,0,35.16,0c.42,0,.81.24,1,.61l1.6,3.11c.16.32.46.54.81.6l3.45.59c.41.07.76.37.88.77.13.4.02.84-.27,1.14l-2.46,2.49c-.25.25-.37.61-.32.96l.5,3.46Z"/>
      <path class="cls-1" d="m67.66,13.73c.06.42-.12.83-.46,1.08s-.79.28-1.17.09l-3.13-1.57c-.32-.16-.69-.16-1.01,0l-3.14,1.55c-.38.19-.83.15-1.17-.1-.34-.25-.51-.67-.45-1.08l.53-3.46c.05-.35-.06-.71-.31-.96l-2.44-2.51c-.29-.3-.4-.74-.26-1.14.13-.4.48-.69.89-.76l3.45-.57c.35-.06.65-.27.82-.59l1.63-3.1C61.65.23,62.04,0,62.46,0c.42,0,.81.24,1,.61l1.6,3.11c.16.32.46.54.81.6l3.45.59c.42.07.76.37.88.77.13.4.02.84-.27,1.14l-2.46,2.49c-.25.25-.37.61-.32.96l.5,3.46Z"/>
      <path class="cls-1" d="m94.96,13.73c.06.42-.12.83-.46,1.08-.34.25-.79.28-1.17.09l-3.12-1.57c-.32-.16-.69-.16-1.01,0l-3.14,1.54c-.38.19-.83.15-1.17-.1s-.51-.67-.45-1.08l.53-3.46c.05-.35-.06-.71-.31-.96l-2.44-2.51c-.29-.3-.4-.74-.26-1.14.13-.4.48-.69.89-.76l3.45-.56c.35-.06.65-.28.82-.59l1.63-3.09c.2-.37.58-.61,1.01-.6.42,0,.81.24,1,.61l1.6,3.11c.16.32.46.54.81.6l3.45.59c.42.07.76.37.88.77.13.4.02.84-.27,1.14l-2.46,2.49c-.25.25-.37.61-.32.96l.5,3.46Z"/>
      <path class="cls-1" d="m122.27,13.73c.06.42-.12.83-.46,1.08-.34.25-.79.28-1.17.09l-3.13-1.57c-.32-.16-.69-.16-1.01,0l-3.14,1.55c-.38.19-.83.15-1.17-.1-.34-.25-.51-.67-.45-1.08l.53-3.46c.05-.35-.06-.71-.31-.96l-2.44-2.51c-.29-.3-.4-.74-.26-1.14.13-.4.48-.69.89-.76l3.45-.56c.35-.06.65-.28.82-.59l1.63-3.1C116.26.23,116.64,0,117.06,0c.42,0,.81.24,1,.61l1.6,3.11c.16.31.46.54.81.6l3.45.59c.42.07.76.37.88.77s.02.84-.27,1.14l-2.46,2.49c-.25.25-.37.61-.32.96l.5,3.46Z"/>
    </g>
  </g>
</svg>